<?xml version="1.0" standalone="no"?>
<!DOCTYPE svg PUBLIC "-//W3C//DTD SVG 20010904//EN"
 "http://www.w3.org/TR/2001/REC-SVG-20010904/DTD/svg10.dtd">
<svg version="1.0" xmlns="http://www.w3.org/2000/svg"
 width="1220.000000pt" height="1220.000000pt" viewBox="0 0 1220.000000 1220.000000"
 preserveAspectRatio="xMidYMid meet">
<metadata>
Created by potrace 1.11, written by Peter Selinger 2001-2013
</metadata>
<g transform="translate(0.000000,1220.000000) scale(0.100000,-0.100000)"
fill="#000000" stroke="none">
<path d="M9960 9493 c-374 -23 -1647 -119 -1709 -129 -30 -5 -33 -8 -28 -32 3
-15 33 -157 67 -317 213 -1010 277 -1366 364 -2020 82 -612 112 -1046 96
-1410 -24 -571 -138 -923 -325 -1006 -109 -48 -330 -66 -436 -36 -71 21 -137
66 -198 134 -63 70 -105 157 -137 280 -53 201 -42 538 25 785 l29 105 -172 51
c-94 28 -506 150 -915 272 -410 121 -745 221 -746 223 0 1 -13 64 -28 140 -72
365 -253 747 -492 1043 -96 117 -275 291 -395 380 -261 197 -586 350 -895 424
-222 53 -327 64 -600 65 -316 0 -483 -22 -744 -96 -333 -95 -707 -288 -967
-500 -499 -405 -818 -971 -884 -1569 -15 -135 -15 -407 -1 -535 79 -679 435
-1309 995 -1759 310 -249 729 -452 1086 -526 334 -69 697 -68 1019 1 280 61
609 211 856 392 329 241 597 562 791 948 l56 114 38 -152 c157 -625 447 -1153
859 -1563 389 -387 802 -605 1254 -660 141 -18 424 -8 559 19 344 69 664 226
956 469 143 118 389 374 470 489 326 464 527 969 666 1678 116 594 162 1256
138 1997 -19 590 -64 1069 -209 2261 l-6 47 -191 -2 c-105 -1 -216 -3 -246 -5z
m-6355 -3122 l89 -181 196 -2 195 -3 -143 -146 -143 -146 46 -244 c25 -134 44
-249 43 -256 -2 -7 -88 53 -193 134 -104 80 -200 152 -212 160 -20 13 -30 8
-175 -100 -84 -64 -154 -112 -156 -108 -1 4 36 99 83 211 47 112 84 204 83
205 -2 1 -91 66 -198 146 l-194 144 240 3 239 2 49 185 c27 101 52 183 55 181
3 -3 46 -86 96 -185z"/>
</g>
</svg>
