<?xml version="1.0" standalone="no"?>
<!DOCTYPE svg PUBLIC "-//W3C//DTD SVG 20010904//EN"
 "http://www.w3.org/TR/2001/REC-SVG-20010904/DTD/svg10.dtd">
<svg version="1.0" xmlns="http://www.w3.org/2000/svg"
 width="700.000000pt" height="700.000000pt" viewBox="0 0 700.000000 700.000000"
 preserveAspectRatio="xMidYMid meet">
<metadata>
Created by potrace 1.11, written by Peter Selinger 2001-2013
</metadata>
<g transform="translate(0.000000,700.000000) scale(0.100000,-0.100000)"
fill="#000000" stroke="none">
<path d="M3328 6676 c-1 -2 -41 -6 -88 -9 -367 -26 -764 -133 -1120 -304 -220
-106 -499 -287 -681 -442 -155 -133 -367 -361 -507 -546 -35 -47 -139 -208
-184 -285 -165 -281 -309 -662 -363 -958 -3 -15 -7 -38 -10 -52 -10 -49 -23
-135 -41 -280 -9 -66 -11 -445 -4 -530 18 -207 31 -295 70 -470 110 -503 362
-998 710 -1395 78 -89 290 -295 370 -358 47 -38 93 -75 102 -82 10 -8 66 -48
125 -88 443 -304 920 -478 1486 -543 18 -2 129 -5 247 -7 195 -4 283 0 450 18
64 7 281 44 289 50 3 1 22 6 41 9 63 10 303 83 420 129 220 85 422 190 620
322 535 357 951 868 1189 1460 5 11 14 34 21 50 72 174 158 518 184 740 27
226 28 629 2 785 -3 14 -7 48 -11 75 -9 75 -60 307 -90 415 -63 226 -195 530
-318 735 -53 89 -171 265 -204 305 -7 8 -26 33 -43 55 -151 195 -404 436 -646
615 -142 105 -464 283 -634 350 -283 113 -574 188 -830 215 -36 4 -74 9 -85
12 -23 5 -461 13 -467 9z"/>
</g>
</svg>
