<?xml version="1.0" standalone="no"?>
<!DOCTYPE svg PUBLIC "-//W3C//DTD SVG 20010904//EN"
 "http://www.w3.org/TR/2001/REC-SVG-20010904/DTD/svg10.dtd">
<svg version="1.0" xmlns="http://www.w3.org/2000/svg"
 width="700.000000pt" height="700.000000pt" viewBox="0 0 700.000000 700.000000"
 preserveAspectRatio="xMidYMid meet">
<metadata>
Created by potrace 1.11, written by Peter Selinger 2001-2013
</metadata>
<g transform="translate(0.000000,700.000000) scale(0.100000,-0.100000)"
fill="#000000" stroke="none">
<path d="M3350 6674 c-318 -21 -567 -67 -836 -155 -1045 -339 -1851 -1214
-2104 -2283 -61 -259 -83 -454 -83 -736 0 -282 22 -477 83 -736 274 -1160
1194 -2080 2354 -2354 259 -61 454 -83 736 -83 282 0 477 22 736 83 1160 274
2080 1194 2354 2354 61 259 83 454 83 736 0 282 -22 477 -83 736 -305 1292
-1403 2268 -2720 2418 -138 16 -421 27 -520 20z m549 -119 c355 -49 689 -153
996 -310 922 -469 1538 -1353 1667 -2395 17 -137 17 -563 0 -700 -167 -1345
-1146 -2407 -2462 -2670 -226 -45 -334 -55 -600 -55 -266 0 -374 10 -600 55
-1227 245 -2175 1193 -2420 2420 -45 226 -55 334 -55 600 0 266 10 374 55 600
245 1227 1193 2175 2420 2420 80 16 190 34 245 39 55 6 116 13 135 15 80 9
511 -4 619 -19z"/>
<path d="M3265 4598 c-130 -266 -238 -484 -239 -485 0 0 -239 -36 -531 -78
-291 -42 -533 -79 -537 -82 -27 -16 22 -70 375 -414 330 -322 382 -376 379
-398 -2 -14 -41 -246 -88 -516 -46 -269 -84 -500 -84 -513 0 -12 7 -25 15 -28
9 -4 214 98 487 242 259 136 476 247 482 247 6 0 222 -111 480 -247 451 -237
506 -262 506 -224 0 6 -40 247 -90 534 -49 288 -90 525 -90 527 0 2 173 172
385 377 212 206 385 379 385 386 0 6 -6 17 -13 23 -8 6 -250 45 -538 86 -288
42 -527 79 -530 83 -3 4 -109 216 -234 472 -125 256 -232 471 -238 478 -29 37
-42 15 -282 -470z"/>
</g>
</svg>
